<svg xmlns="http://www.w3.org/2000/svg" version="1.1" xmlns:xlink="http://www.w3.org/1999/xlink" viewBox="0 0 11.870034400082911 2.917829092196925"><g transform="matrix(1,0,0,1,2.7960720734206506,0.9061850539109625)"><g clip-path="url(#SvgjsClipPath1001)"><g clip-path="url(#SvgjsClipPath100095e34953-534a-4973-b425-3e4776914940)"><path d=" M -2.0316472360469975 1.3101693953257532 C -2.0316377539098114 1.3497383526765447 -2.0473498146902354 1.3876899131549463 -2.0753259413199316 1.4156727438648198 C -2.103302067949617 1.4436555745746897 -2.1412498626182064 1.4593767283651906 -2.1808188211051074 1.4593767272290536 L -2.1808188211050905 1.4593767272290536 C -2.2632237550782306 1.4593767272290536 -2.330026153008391 1.3925743292988875 -2.330026153008391 1.3101693953257532 L -2.330026153008391 -0.20471041095075296 C -2.3300261541876335 -0.24427936927510344 -2.314305000438481 -0.28222716396081615 -2.286322169759093 -0.31020329062099516 C -2.2583393390797 -0.33817941728117684 -2.2203877786184187 -0.3538914781029545 -2.180818821267641 -0.35388199600888476 L -2.1808188211050905 -0.35388199600888476 C -2.1412560569321735 -0.35388199600884596 -2.1033136805793067 -0.3381657491348228 -2.0753385817501555 -0.31019065030567716 C -2.0473634829210097 -0.2822155514765288 -2.031647236046987 -0.24427317512366184 -2.031647236046987 -0.20471041095075296 Z" fill="#3a868f" transform="matrix(1,0,0,1,0,0)" fill-rule="nonzero"></path></g><g clip-path="url(#SvgjsClipPath100095e34953-534a-4973-b425-3e4776914940)"><path d=" M -1.3234664856070508 1.234922286160336 C -1.3234664856070397 1.3709929514008734 -1.4337630841661504 1.4813055512074151 -1.5698337453820028 1.481325290187895 L -1.5698337427890232 1.481325290187895 C -1.6351805959568484 1.4813252908753851 -1.697850489750101 1.4553639081354892 -1.7440543406411848 1.4091533532614022 C -1.790258191532263 1.3629427983873121 -1.8162104815225368 1.3002691386402887 -1.8162009999710065 1.234922286160336 L -1.8162009999710065 -0.12917732702366075 C -1.8162009989973504 -0.19451798985601745 -1.790244522277392 -0.25718246534365646 -1.7440416984088352 -0.3033852878352656 C -1.6978388745402784 -0.3495881103268719 -1.635174398279072 -0.37554458517928624 -1.569833739117876 -0.375544584205633 L -1.5698337427890232 -0.375544584205633 C -1.5044930836278216 -0.375544584205633 -1.4418286077533962 -0.34958810841944793 -1.3956257845733104 -0.30338528523936226 C -1.3494229613932305 -0.2571824620592822 -1.3234664856070397 -0.19451798618485935 -1.3234664856070397 -0.12917732702366075 Z" fill="#3a868f" transform="matrix(1,0,0,1,0,0)" fill-rule="nonzero"></path></g><g clip-path="url(#SvgjsClipPath100095e34953-534a-4973-b425-3e4776914940)"><path d=" M -0.3799999999999999 1.1835540695946793 C -0.3800000000000108 1.3835054762261851 -0.5420926416475262 1.545598117873698 -0.742044048279032 1.5455981178737006 L -0.7420440482790209 1.5455981178737006 C -0.9419954549105212 1.5455981178737006 -1.1040880965580366 1.3835054762261851 -1.1040880965580366 1.1835540695946793 L -1.1040880965580366 -0.078095085219679 C -1.1040683578509722 -0.27803831524064804 -0.9419872782993719 -0.44011939479197404 -0.742044048278705 -0.44013913349870293 L -0.7420440482790209 -0.44013913349870293 C -0.5421008182583595 -0.440119394791805 -0.38001973870689776 -0.27803831524034317 -0.3800000000000108 -0.07809508521967623 Z" fill="#ececd9" transform="matrix(1,0,0,1,0,0)" fill-rule="nonzero"></path></g></g><g><path d=" M 0.0582568359375 0.36943359374999996 L 0.395009765625 0.36943359374999996 L 0.395009765625 0.4333740234375 Q 0.440478515625 0.39714111328125 0.497314453125 0.37582763671874997 Q 0.554150390625 0.3545141601562499 0.61453857421875 0.3545141601562499 Q 0.69837158203125 0.3545141601562499 0.758404541015625 0.383997802734375 Q 0.8184375 0.4134814453125 0.8525390625 0.47386962890624995 Q 0.87598388671875 0.44758300781249993 0.905467529296875 0.425914306640625 Q 0.9349511718750001 0.40424560546875 0.9683422851562501 0.388260498046875 Q 1.0017333984375 0.3722753906249999 1.038321533203125 0.3633947753906249 Q 1.07490966796875 0.3545141601562499 1.11327392578125 0.3545141601562499 Q 1.24825927734375 0.3545141601562499 1.3207250976562501 0.42911132812499997 Q 1.39319091796875 0.50370849609375 1.39319091796875 0.64721923828125 L 1.39319091796875 0.9107958984375 L 1.4976269531250002 0.9107958984375 L 1.4976269531250002 1.105458984375 L 1.16158447265625 1.105458984375 L 1.16158447265625 0.6834521484375 Q 1.16158447265625 0.6209326171875 1.1292590332031252 0.58541015625 Q 1.09693359375 0.5498876953125 1.03938720703125 0.5498876953125 Q 0.9996020507812501 0.5498876953125 0.9644348144531251 0.568714599609375 Q 0.929267578125 0.5875415039062499 0.89445556640625 0.6337207031250001 Q 0.8951660156250001 0.64153564453125 0.8951660156250001 0.6497058105468749 Q 0.8951660156250001 0.6578759765625 0.8951660156250001 0.6664013671875 L 0.8951660156250001 0.9107958984375 L 1.0017333984375 0.9107958984375 L 1.0017333984375 1.105458984375 L 0.66569091796875 1.105458984375 L 0.66569091796875 0.68203125 Q 0.66569091796875 0.6521923828125 0.656455078125 0.628037109375 Q 0.64721923828125 0.6038818359375 0.63087890625 0.5868310546875 Q 0.61453857421875 0.5697802734374999 0.592159423828125 0.560189208984375 Q 0.5697802734375 0.55059814453125 0.5427832031250001 0.5498876953125 Q 0.5072607421875001 0.54917724609375 0.469251708984375 0.565517578125 Q 0.43124267578125003 0.58185791015625 0.3964306640625 0.62590576171875 L 0.3964306640625 0.9107958984375 L 0.514365234375 0.9107958984375 L 0.514365234375 1.105458984375 L 0.0568359375 1.105458984375 L 0.0568359375 0.9107958984375 L 0.1662451171875 0.9107958984375 L 0.1662451171875 0.5640966796875 L 0.0582568359375 0.5640966796875 L 0.0582568359375 0.36943359374999996 M 1.7889253417968751 0.78362548828125 L 1.791056689453125 0.8056494140625 Q 1.798871630859375 0.83761962890625 1.81769853515625 0.86177490234375 Q 1.836525439453125 0.88593017578125 1.862101611328125 0.9022705078125 Q 1.887677783203125 0.91861083984375 1.918937548828125 0.9267810058593751 Q 1.950197314453125 0.934951171875 1.9821675292968752 0.934951171875 Q 2.014137744140625 0.934951171875 2.0429109375000003 0.931043701171875 Q 2.071684130859375 0.92713623046875 2.098681201171875 0.9203869628906249 Q 2.125678271484375 0.9136376953125 2.151254443359375 0.904757080078125 Q 2.1768306152343753 0.89587646484375 2.2031172363281253 0.88593017578125 L 2.2812666503906254 1.031572265625 Q 2.240771044921875 1.05643798828125 2.20702470703125 1.073843994140625 Q 2.173278369140625 1.09125 2.1391768066406254 1.1026171875 Q 2.1050752441406253 1.113984375 2.066710986328125 1.119312744140625 Q 2.028346728515625 1.12464111328125 1.977194384765625 1.12464111328125 Q 1.8812837402343752 1.12464111328125 1.8066865722656251 1.093026123046875 Q 1.732089404296875 1.0614111328125 1.6812922851562502 1.0074169921875 Q 1.630495166015625 0.9534228515625001 1.6038533203125 0.88095703125 Q 1.577211474609375 0.8084912109375 1.577211474609375 0.7275 Q 1.577211474609375 0.6465087890625 1.60527421875 0.5754638671875 Q 1.6333369628906251 0.5044189453125 1.684489306640625 0.45149047851562496 Q 1.7356416503906251 0.39856201171874994 1.8066865722656251 0.3680126953125 Q 1.8777314941406251 0.33746337890625 1.9644062988281252 0.33746337890625 Q 2.0510811035156253 0.33746337890625 2.1182185546875 0.366236572265625 Q 2.1853560058593753 0.395009765625 2.231535205078125 0.445806884765625 Q 2.277714404296875 0.4966040039062499 2.302580126953125 0.5651623535156249 Q 2.3274458496093753 0.6337207031250001 2.329577197265625 0.71258056640625 Q 2.331708544921875 0.730341796875 2.33206376953125 0.7477478027343749 Q 2.332418994140625 0.7651538085937499 2.330998095703125 0.78362548828125 L 1.7889253417968751 0.78362548828125 M 1.958722705078125 0.51507568359375 Q 1.918937548828125 0.51507568359375 1.8908748046875001 0.524666748046875 Q 1.862812060546875 0.5342578124999999 1.843629931640625 0.550953369140625 Q 1.8244478027343751 0.56764892578125 1.813080615234375 0.58896240234375 Q 1.8017134277343752 0.6102758789062499 1.795319384765625 0.6337207031250001 L 2.102943896484375 0.6337207031250001 Q 2.097970751953125 0.6095654296874999 2.0887349121093752 0.588251953125 Q 2.0794990722656252 0.5669384765625 2.063158740234375 0.55059814453125 Q 2.046818408203125 0.5342578124999999 2.0215974609375 0.524666748046875 Q 1.9963765136718752 0.51507568359375 1.958722705078125 0.51507568359375 M 2.45107822265625 0.36943359374999996 L 2.78783115234375 0.36943359374999996 L 2.78783115234375 0.4333740234375 Q 2.83329990234375 0.39714111328125 2.89013583984375 0.37582763671874997 Q 2.94697177734375 0.3545141601562499 3.0073599609375 0.3545141601562499 Q 3.09119296875 0.3545141601562499 3.151225927734375 0.383997802734375 Q 3.21125888671875 0.4134814453125 3.24536044921875 0.47386962890624995 Q 3.2688052734375 0.44758300781249993 3.298288916015625 0.425914306640625 Q 3.3277725585937503 0.40424560546875 3.361163671875 0.388260498046875 Q 3.39455478515625 0.3722753906249999 3.431142919921875 0.3633947753906249 Q 3.4677310546875 0.3545141601562499 3.5060953125000003 0.3545141601562499 Q 3.6410806640624997 0.3545141601562499 3.713546484375 0.42911132812499997 Q 3.7860123046875 0.50370849609375 3.7860123046875 0.64721923828125 L 3.7860123046875 0.9107958984375 L 3.89044833984375 0.9107958984375 L 3.89044833984375 1.105458984375 L 3.554405859375 1.105458984375 L 3.554405859375 0.6834521484375 Q 3.554405859375 0.6209326171875 3.522080419921875 0.58541015625 Q 3.48975498046875 0.5498876953125 3.43220859375 0.5498876953125 Q 3.3924234375 0.5498876953125 3.357256201171875 0.568714599609375 Q 3.32208896484375 0.5875415039062499 3.287276953125 0.6337207031250001 Q 3.28798740234375 0.64153564453125 3.28798740234375 0.6497058105468749 Q 3.28798740234375 0.6578759765625 3.28798740234375 0.6664013671875 L 3.28798740234375 0.9107958984375 L 3.39455478515625 0.9107958984375 L 3.39455478515625 1.105458984375 L 3.0585123046875 1.105458984375 L 3.0585123046875 0.68203125 Q 3.0585123046875 0.6521923828125 3.04927646484375 0.628037109375 Q 3.040040625 0.6038818359375 3.02370029296875 0.5868310546875 Q 3.0073599609375 0.5697802734374999 2.984980810546875 0.560189208984375 Q 2.96260166015625 0.55059814453125 2.93560458984375 0.5498876953125 Q 2.90008212890625 0.54917724609375 2.862073095703125 0.565517578125 Q 2.8240640625 0.58185791015625 2.78925205078125 0.62590576171875 L 2.78925205078125 0.9107958984375 L 2.90718662109375 0.9107958984375 L 2.90718662109375 1.105458984375 L 2.44965732421875 1.105458984375 L 2.44965732421875 0.9107958984375 L 2.55906650390625 0.9107958984375 L 2.55906650390625 0.5640966796875 L 2.45107822265625 0.5640966796875 L 2.45107822265625 0.36943359374999996 M 3.984952294921875 0.7346044921875 Q 3.984952294921875 0.6543237304687499 4.0140807128906255 0.5839892578125 Q 4.043209130859375 0.51365478515625 4.095071923828125 0.4610815429687499 Q 4.146934716796875 0.40850830078125 4.218690087890625 0.377958984375 Q 4.290445458984375 0.34740966796874995 4.376409814453125 0.34740966796874995 Q 4.462374169921875 0.34740966796874995 4.534484765625 0.377958984375 Q 4.606595361328125 0.40850830078125 4.658458154296875 0.4610815429687499 Q 4.710320947265625 0.51365478515625 4.739094140625 0.5839892578125 Q 4.767867333984375 0.6543237304687499 4.767867333984375 0.7346044921875 Q 4.767867333984375 0.81488525390625 4.73980458984375 0.885574951171875 Q 4.711741845703125 0.9562646484375 4.660234277343751 1.009193115234375 Q 4.608726708984375 1.06212158203125 4.53661611328125 1.0926708984375 Q 4.464505517578125 1.12322021484375 4.376409814453125 1.12322021484375 Q 4.287603662109375 1.12322021484375 4.21549306640625 1.0926708984375 Q 4.143382470703125 1.06212158203125 4.092230126953125 1.00954833984375 Q 4.041077783203125 0.95697509765625 4.0130150390625 0.886285400390625 Q 3.984952294921875 0.8155957031250001 3.984952294921875 0.7346044921875 M 4.197376611328125 0.7346044921875 Q 4.197376611328125 0.77652099609375 4.211585595703125 0.811688232421875 Q 4.225794580078125 0.8468554687500001 4.250305078125 0.872431640625 Q 4.274815576171875 0.8980078125 4.3071410156250005 0.912216796875 Q 4.339466455078125 0.92642578125 4.376409814453125 0.92642578125 Q 4.414063623046875 0.92642578125 4.4463890625 0.912572021484375 Q 4.478714501953125 0.89871826171875 4.50251455078125 0.87314208984375 Q 4.526314599609375 0.84756591796875 4.539813134765625 0.812398681640625 Q 4.553311669921875 0.7772314453125 4.553311669921875 0.7346044921875 Q 4.553311669921875 0.690556640625 4.539813134765625 0.6550341796875 Q 4.526314599609375 0.61951171875 4.50251455078125 0.59464599609375 Q 4.478714501953125 0.5697802734374999 4.4463890625 0.556636962890625 Q 4.414063623046875 0.54349365234375 4.376409814453125 0.5442041015625 Q 4.339466455078125 0.54349365234375 4.3071410156250005 0.556636962890625 Q 4.274815576171875 0.5697802734374999 4.250305078125 0.59464599609375 Q 4.225794580078125 0.61951171875 4.211585595703125 0.6550341796875 Q 4.197376611328125 0.690556640625 4.197376611328125 0.7346044921875 M 5.319900585937501 0 L 5.641734082031251 0 L 5.641734082031251 0.9107958984375 L 5.785244824218751 0.9107958984375 L 5.785244824218751 1.105458984375 L 5.422915722656251 1.105458984375 L 5.422915722656251 1.077041015625 Q 5.38455146484375 1.09693359375 5.344411083984376 1.10830078125 Q 5.304270703125001 1.11966796875 5.263064648437501 1.11966796875 Q 5.178521191406251 1.11966796875 5.107831494140625 1.089473876953125 Q 5.037141796875001 1.05927978515625 4.986344677734375 1.00670654296875 Q 4.9355475585937505 0.95413330078125 4.90712958984375 0.883443603515625 Q 4.878711621093751 0.81275390625 4.878711621093751 0.7317626953125 Q 4.878711621093751 0.650771484375 4.906774365234376 0.5807922363281249 Q 4.9348371093750005 0.51081298828125 4.984923779296875 0.45895019531250003 Q 5.035010449218751 0.40708740234374996 5.1049896972656255 0.37724853515625 Q 5.174968945312501 0.34740966796874995 5.258801953125 0.34740966796874995 Q 5.304981152343751 0.34740966796874995 5.3454767578125 0.35629028320312495 Q 5.385972363281251 0.36517089843749995 5.422915722656251 0.38151123046875 L 5.422915722656251 0.19466308593749992 L 5.319900585937501 0.19466308593749992 L 5.319900585937501 0 M 5.27514228515625 0.923583984375 Q 5.322031933593751 0.9221630859375 5.360040966796875 0.8994287109375 Q 5.3980500000000005 0.8766943359375 5.422915722656251 0.8397509765625 L 5.422915722656251 0.6230639648437499 Q 5.3980500000000005 0.58541015625 5.358620068359375 0.564451904296875 Q 5.319190136718751 0.54349365234375 5.27514228515625 0.5442041015625 Q 5.2381989257812505 0.54349365234375 5.205873486328126 0.5569921875 Q 5.173548046875 0.57049072265625 5.149037548828126 0.5953564453125 Q 5.124527050781251 0.62022216796875 5.110318066406251 0.6550341796875 Q 5.0961090820312505 0.6898461914062499 5.0961090820312505 0.7338940429687499 Q 5.0961090820312505 0.7772314453125 5.110318066406251 0.812398681640625 Q 5.124527050781251 0.84756591796875 5.149037548828126 0.872076416015625 Q 5.173548046875 0.8965869140625 5.205873486328126 0.909375 Q 5.2381989257812505 0.9221630859375 5.27514228515625 0.923583984375 M 5.852041259765626 0 L 6.173164306640626 0 L 6.173164306640626 0.38577392578125 Q 6.2115285644531255 0.36730224609374995 6.252024169921876 0.35735595703125 Q 6.292519775390626 0.34740966796874995 6.3351467285156255 0.34740966796874995 Q 6.416848388671876 0.34740966796874995 6.486472412109376 0.377958984375 Q 6.556096435546876 0.40850830078125 6.606538330078126 0.4610815429687499 Q 6.656980224609375 0.51365478515625 6.685753417968751 0.5839892578125 Q 6.714526611328126 0.6543237304687499 6.714526611328126 0.73318359375 Q 6.714526611328126 0.81275390625 6.686463867187501 0.88308837890625 Q 6.658401123046876 0.9534228515625001 6.607959228515626 1.005640869140625 Q 6.557517333984376 1.05785888671875 6.487893310546876 1.088052978515625 Q 6.418269287109376 1.1182470703125 6.3351467285156255 1.1182470703125 Q 6.290388427734376 1.1182470703125 6.249892822265626 1.1097216796875 Q 6.209397216796876 1.1011962890625 6.173164306640626 1.0855664062500001 L 6.173164306640626 1.105458984375 L 5.955056396484376 1.105458984375 L 5.955056396484376 0.19466308593749992 L 5.852041259765626 0.19466308593749992 L 5.852041259765626 0 M 6.320227294921876 0.54349365234375 Q 6.273337646484376 0.54349365234375 6.236039062500001 0.56480712890625 Q 6.198740478515626 0.58612060546875 6.173164306640626 0.62590576171875 L 6.173164306640626 0.84614501953125 Q 6.195898681640626 0.88024658203125 6.233907714843751 0.901204833984375 Q 6.271916748046876 0.9221630859375 6.3188063964843755 0.9221630859375 Q 6.355039306640625 0.9221630859375 6.387719970703126 0.9090197753906251 Q 6.420400634765626 0.89587646484375 6.444911132812501 0.871365966796875 Q 6.469421630859376 0.8468554687500001 6.483630615234376 0.812398681640625 Q 6.497839599609376 0.77794189453125 6.497839599609376 0.7346044921875 Q 6.497839599609376 0.690556640625 6.483630615234376 0.6550341796875 Q 6.469421630859376 0.61951171875 6.445266357421876 0.59464599609375 Q 6.421111083984376 0.5697802734374999 6.388785644531251 0.556636962890625 Q 6.356460205078126 0.54349365234375 6.320227294921876 0.54349365234375 M 6.817555957031251 0.9903662109375 Q 6.817555957031251 0.9619482421875 6.827857470703126 0.93708251953125 Q 6.838158984375001 0.912216796875 6.856985888671876 0.89303466796875 Q 6.875812792968751 0.8738525390625 6.901388964843751 0.8628405761718749 Q 6.926965136718751 0.85182861328125 6.956093554687501 0.85182861328125 Q 6.983801074218751 0.85182861328125 7.009022021484376 0.8628405761718749 Q 7.034242968750001 0.8738525390625 7.053069873046876 0.892679443359375 Q 7.071896777343751 0.9115063476562499 7.082553515625001 0.93708251953125 Q 7.093210253906251 0.96265869140625 7.093210253906251 0.9903662109375 Q 7.093210253906251 1.0187841796875 7.082198291015626 1.0443603515625 Q 7.071186328125001 1.0699365234375 7.052714648437501 1.088408203125 Q 7.034242968750001 1.1068798828125 7.009377246093751 1.117891845703125 Q 6.984511523437501 1.12890380859375 6.956093554687501 1.12890380859375 Q 6.926254687500001 1.12890380859375 6.901033740234376 1.117891845703125 Q 6.875812792968751 1.1068798828125 6.856985888671876 1.088408203125 Q 6.838158984375001 1.0699365234375 6.827857470703126 1.044715576171875 Q 6.817555957031251 1.01949462890625 6.817555957031251 0.9903662109375 M 7.209738134765626 0.36943359374999996 L 7.540097021484376 0.36943359374999996 L 7.540097021484376 0.9107958984375 L 7.6424017089843765 0.9107958984375 L 7.6424017089843765 1.105458984375 L 7.209738134765626 1.105458984375 L 7.209738134765626 0.9107958984375 L 7.320568212890626 0.9107958984375 L 7.320568212890626 0.5640966796875 L 7.209738134765626 0.5640966796875 L 7.209738134765626 0.36943359374999996 M 7.309201025390626 0.13214355468749994 Q 7.309201025390626 0.10585693359374992 7.318792089843751 0.08276733398437486 Q 7.328383154296876 0.0596777343749999 7.345433935546876 0.04262695312499987 Q 7.362484716796876 0.025576171875000053 7.3855743164062515 0.015629882812499885 Q 7.408663916015626 0.005683593749999938 7.435660986328126 0.005683593749999938 Q 7.461237158203126 0.005683593749999938 7.4839715332031265 0.015629882812499885 Q 7.506705908203126 0.025576171875000053 7.523756689453126 0.04262695312499987 Q 7.540807470703126 0.0596777343749999 7.550753759765626 0.08276733398437486 Q 7.560700048828126 0.10585693359374992 7.560700048828126 0.13214355468749994 Q 7.560700048828126 0.15843017578124996 7.550753759765626 0.18151977539062492 Q 7.540807470703126 0.20460937499999998 7.523756689453126 0.22166015625000002 Q 7.506705908203126 0.23871093749999994 7.4839715332031265 0.2486572265625 Q 7.461237158203126 0.25860351562499995 7.435660986328126 0.25860351562499995 Q 7.408663916015626 0.25860351562499995 7.3855743164062515 0.2486572265625 Q 7.362484716796876 0.23871093749999994 7.345433935546876 0.22166015625000002 Q 7.328383154296876 0.20460937499999998 7.318792089843751 0.18151977539062492 Q 7.309201025390626 0.15843017578124996 7.309201025390626 0.13214355468749994 M 7.774559472656251 0.7346044921875 Q 7.774559472656251 0.6543237304687499 7.803687890625001 0.5839892578125 Q 7.832816308593751 0.51365478515625 7.884679101562501 0.4610815429687499 Q 7.936541894531251 0.40850830078125 8.008297265625002 0.377958984375 Q 8.08005263671875 0.34740966796874995 8.166016992187501 0.34740966796874995 Q 8.251981347656251 0.34740966796874995 8.324091943359376 0.377958984375 Q 8.3962025390625 0.40850830078125 8.44806533203125 0.4610815429687499 Q 8.499928125 0.51365478515625 8.528701318359376 0.5839892578125 Q 8.557474511718752 0.6543237304687499 8.557474511718752 0.7346044921875 Q 8.557474511718752 0.81488525390625 8.529411767578125 0.885574951171875 Q 8.5013490234375 0.9562646484375 8.449841455078126 1.009193115234375 Q 8.398333886718751 1.06212158203125 8.326223291015626 1.0926708984375 Q 8.2541126953125 1.12322021484375 8.166016992187501 1.12322021484375 Q 8.077210839843751 1.12322021484375 8.005100244140626 1.0926708984375 Q 7.932989648437501 1.06212158203125 7.881837304687501 1.00954833984375 Q 7.830684960937501 0.95697509765625 7.802622216796876 0.886285400390625 Q 7.774559472656251 0.8155957031250001 7.774559472656251 0.7346044921875 M 7.986983789062501 0.7346044921875 Q 7.986983789062501 0.77652099609375 8.0011927734375 0.811688232421875 Q 8.015401757812501 0.8468554687500001 8.039912255859376 0.872431640625 Q 8.064422753906252 0.8980078125 8.096748193359376 0.912216796875 Q 8.129073632812501 0.92642578125 8.166016992187501 0.92642578125 Q 8.203670800781252 0.92642578125 8.235996240234376 0.912572021484375 Q 8.268321679687501 0.89871826171875 8.292121728515626 0.87314208984375 Q 8.315921777343751 0.84756591796875 8.329420312500002 0.812398681640625 Q 8.34291884765625 0.7772314453125 8.34291884765625 0.7346044921875 Q 8.34291884765625 0.690556640625 8.329420312500002 0.6550341796875 Q 8.315921777343751 0.61951171875 8.292121728515626 0.59464599609375 Q 8.268321679687501 0.5697802734374999 8.235996240234376 0.556636962890625 Q 8.203670800781252 0.54349365234375 8.166016992187501 0.5442041015625 Q 8.129073632812501 0.54349365234375 8.096748193359376 0.556636962890625 Q 8.064422753906252 0.5697802734374999 8.039912255859376 0.59464599609375 Q 8.015401757812501 0.61951171875 8.0011927734375 0.6550341796875 Q 7.986983789062501 0.690556640625 7.986983789062501 0.7346044921875" fill="#ffffff" fill-rule="nonzero"></path></g><g></g></g><defs><clipPath id="SvgjsClipPath1001"><path d=" M -2.330026153008391 -0.44013913349870293 h 1.950026153008391 v 1.9857372513724059 h -1.950026153008391 Z"></path></clipPath><clipPath id="SvgjsClipPath100095e34953-534a-4973-b425-3e4776914940"><path d=" M -2.330026153008391 -0.44013913349870293 L -0.3799999999999999 -0.44013913349870293 L -0.3799999999999999 1.5455981178737028 L -2.330026153008391 1.5455981178737028 Z"></path></clipPath></defs></svg>